<?xml version="1.0" encoding="utf-8"?>
<!-- Generator: Adobe Illustrator 19.1.0, SVG Export Plug-In . SVG Version: 6.00 Build 0)  -->
<svg version="1.1" baseProfile="tiny" id="Layer_1" xmlns="http://www.w3.org/2000/svg" xmlns:xlink="http://www.w3.org/1999/xlink"
	 x="0px" y="0px" viewBox="0 0 126 126" xml:space="preserve">
<rect display="none" width="126" height="126"/>
<g>
	<rect x="84" y="20" fill="#FFFFFF" width="2" height="22"/>
	<rect x="84" y="40" fill="#FFFFFF" width="22" height="2"/>
	<rect x="86" y="30" fill="#FFFFFF" width="10" height="2"/>
	<rect x="94" y="32" fill="#FFFFFF" width="2" height="52"/>
	<rect x="104" y="42" fill="#FFFFFF" width="2" height="44"/>
</g>
<g>
	<rect x="20" y="40" fill="#FFFFFF" width="22" height="2"/>
	<rect x="40" y="20" fill="#FFFFFF" width="2" height="22"/>
	<rect x="30" y="30" fill="#FFFFFF" width="2" height="10"/>
	<rect x="32" y="30" fill="#FFFFFF" width="8" height="2"/>
</g>
<g>
	<rect x="84" y="84" fill="#FFFFFF" width="22" height="2"/>
	<rect x="84" y="84" fill="#FFFFFF" width="2" height="22"/>
	<rect x="94" y="86" fill="#FFFFFF" width="2" height="10"/>
	<rect x="86" y="94" fill="#FFFFFF" width="8" height="2"/>
</g>
<g>
	<rect x="40" y="84" fill="#FFFFFF" width="2" height="22"/>
	<rect x="20" y="84" fill="#FFFFFF" width="22" height="2"/>
	<rect x="30" y="94" fill="#FFFFFF" width="10" height="2"/>
	<rect x="30" y="42" fill="#FFFFFF" width="2" height="52"/>
	<rect x="20" y="40" fill="#FFFFFF" width="2" height="44"/>
</g>
</svg>
